# Blender 5.2.2 LTS
# www.blender.org
mtllib edgesWorld.mtl
o Edges_Map_2
v -27.200001 5.035083 0.055599
v -27.200001 -8.364917 0.055600
v -27.200001 5.035083 2.055599
v -27.200001 -8.364917 2.055600
v -27.000000 4.835083 0.055599
v -27.000000 -3.231584 0.055600
v -27.000000 -8.164917 0.055600
v -27.000000 4.835083 2.055599
v -27.000000 -3.164917 2.055600
v -27.000000 -3.364917 2.055600
v -27.000000 -8.164917 2.055600
v -21.200001 4.835083 0.055599
v -21.200001 -1.664917 0.055600
v -21.200001 4.835083 2.055599
v -21.200001 -1.664917 2.055600
v -21.000000 4.835083 0.055599
v -21.000000 0.035083 0.055600
v -21.000000 -0.164917 0.055600
v -21.000000 -1.664917 0.055600
v -21.000000 -3.298250 0.055600
v -21.000000 4.835083 2.055599
v -21.000000 0.035083 2.055600
v -21.000000 -0.164917 2.055600
v -21.000000 -1.664917 2.055600
v -21.000000 -3.231584 2.055600
v -19.400000 -3.231584 0.055600
v -19.400000 -3.298250 2.055600
v -16.700001 0.035083 0.055600
v -16.700001 -0.164917 0.055600
v -16.700001 -0.031583 2.055600
v -15.200000 -0.031584 0.055600
v -15.200000 -0.098250 2.055600
v -14.400000 -3.364917 0.055600
v -14.400000 -8.164917 0.055600
v -14.333333 -3.364917 2.055600
v -14.266666 -8.164917 2.055600
v -14.200000 4.835083 0.055599
v -14.200000 0.035083 0.055600
v -14.200000 -3.364917 0.055600
v -14.200000 -8.164917 0.055600
v -14.133333 4.835083 2.055599
v -14.066667 0.035083 2.055600
v -14.000000 4.835083 0.055599
v -14.000000 0.035083 0.055600
v -13.550001 -3.298250 0.055600
v -13.550001 -3.231584 2.055600
v -13.300001 -0.098250 0.055600
v -13.300001 -0.031583 2.055600
v -12.050001 -3.231584 0.055600
v -12.050001 -3.298250 2.055600
v -11.800000 0.035083 0.055600
v -11.800000 -0.164917 0.055600
v -11.800000 0.035083 2.055600
v -11.800000 -0.164917 2.055600
v -11.400000 4.835083 0.055599
v -11.400000 0.035083 0.055600
v -11.400000 -3.364917 0.055600
v -11.400000 -8.164917 0.055600
v -11.333333 4.835083 2.055599
v -11.266666 0.035083 2.055600
v -11.333333 -3.364917 2.055600
v -11.400000 -8.164917 2.055600
v -11.200000 4.835083 0.055599
v -11.200000 0.035083 0.055600
v -11.200000 -3.364917 0.055600
v -11.200000 -8.364917 0.055600
v -11.200000 -8.364917 2.055600
v -7.400000 4.835083 0.055599
v -7.400000 3.035083 0.055599
v -7.400000 1.535083 0.055600
v -7.400000 0.035083 0.055600
v -7.400000 4.835083 2.055599
v -7.400000 3.035083 2.055599
v -7.400000 1.535083 2.055599
v -7.400000 0.035083 2.055600
v -7.200000 4.835083 0.055599
v -7.200000 3.035083 0.055599
v -7.200000 1.535083 0.055600
v -7.200000 -0.164917 0.055600
v -7.200000 4.835083 2.055599
v -7.200000 3.035083 2.055599
v -7.200000 1.535083 2.055599
v -7.200000 -0.164917 2.055600
v -4.200000 4.835083 0.055599
v -4.133333 2.835083 0.055599
v -4.066667 1.335083 0.055600
v -4.200000 -0.164917 0.055600
v -4.133333 4.835083 2.055599
v -4.066667 2.835083 2.055599
v -4.133333 1.335083 2.055600
v -4.200000 -0.164917 2.055600
v -4.000000 4.835083 0.055599
v -4.000000 0.035083 0.055600
v -4.000000 0.035083 2.055600
v -0.200000 6.535083 0.055599
v -0.200000 4.901750 0.055599
v -0.200000 0.035083 0.055600
v -0.200000 -3.364917 0.055600
v -0.200000 -8.364917 0.055600
v -0.200000 6.535083 2.055599
v -0.200000 5.035083 2.055599
v -0.200000 4.835083 2.055599
v -0.200000 0.035083 2.055600
v -0.200000 -3.364917 2.055600
v -0.200000 -8.364917 2.055600
v 0.000000 6.335083 0.055599
v 0.000000 -0.164917 0.055600
v 0.000000 -3.164917 0.055600
v 0.000000 -8.164917 0.055600
v 0.000000 6.335083 2.055599
v 0.000000 -0.164917 2.055600
v 0.000000 -3.164917 2.055600
v 0.000000 -8.164917 2.055600
v 9.000000 6.335083 0.055599
v 9.066667 0.335083 0.055600
v 9.133333 -2.664917 0.055600
v 9.000000 -8.164917 0.055600
v 9.066667 6.335083 2.055599
v 9.133333 0.335083 2.055600
v 9.066667 -2.664917 2.055600
v 9.133333 -8.164917 2.055600
v 9.200000 6.335083 0.055599
v 9.200000 -8.164917 0.055600
v 12.000000 6.335083 0.055599
v 12.000000 -8.164917 0.055600
v 12.000000 6.335083 2.055599
v 12.000000 -8.164917 2.055600
v 12.200000 6.535083 0.055599
v 12.200000 -8.364917 0.055600
v 12.200000 6.535083 2.055599
v 12.200000 -8.364917 2.055600
vn 1.0000 -0.0000 -0.0000
vn -0.0000 1.0000 -0.0000
vn 0.0218 0.8435 -0.5366
vn -0.9990 -0.0040 0.0444
vn -0.0157 0.7867 0.6172
vn 0.0238 0.0003 0.9997
vn 0.3199 0.0039 -0.9474
vn -1.0000 -0.0000 -0.0000
vn -0.0000 -1.0000 -0.0000
vn -0.0212 -0.8436 -0.5366
vn 0.9989 0.0043 0.0461
vn 0.0155 -0.7913 0.6112
vn -0.0232 -0.0003 0.9997
vn -0.3199 -0.0036 -0.9475
vn 0.0260 0.8212 -0.5701
vn -0.9973 0.0704 -0.0196
vn -0.0348 0.8241 0.5653
vn -0.9990 0.0444 -0.0000
vn 0.3189 0.0164 -0.9476
vn 0.3193 0.0267 0.9473
vn 0.0059 -0.3336 -0.9427
vn 0.0053 -0.9993 -0.0373
vn 0.0121 -0.9999 -0.0096
vn -0.0000 -0.9994 -0.0333
vn -0.0323 -0.8432 -0.5366
vn 0.9997 -0.0167 0.0167
vn 0.0222 -0.7069 0.7069
vn -0.0383 -0.0013 0.9993
vn -0.3209 -0.0107 -0.9470
vn 0.9994 -0.0000 0.0333
vn 0.9983 0.0104 0.0582
vn 0.0211 -0.0953 0.9952
vn -0.0211 0.0953 0.9952
vn -0.9994 -0.0000 0.0333
vn -0.9983 -0.0104 0.0582
vn 0.8123 -0.0952 -0.5755
vn 0.0544 0.3270 -0.9435
vn 0.8051 -0.0115 0.5930
vn -0.0047 0.7129 0.7013
vn -0.8152 -0.0011 -0.5792
vn -0.7990 -0.0657 0.5978
vn -0.0221 0.3321 -0.9430
vn 0.6995 0.7142 0.0238
vn 0.0112 0.9999 0.0092
vn 0.0677 0.9974 0.0240
vn 0.0155 0.9999 -0.0000
vn 0.0224 -0.9986 0.0481
vn 0.0027 -0.3163 0.9487
vn 0.0309 -0.9949 0.0959
vn 0.7913 -0.0155 -0.6112
vn 0.0003 0.0232 -0.9997
vn 0.8436 0.0212 0.5366
vn 0.0111 0.9994 -0.0333
vn -0.0014 -0.3215 0.9469
vn -0.8144 0.0256 -0.5797
vn -0.0053 -0.3231 -0.9464
vn -0.8253 -0.0124 0.5646
vn 0.0497 -0.7088 0.7037
vn 0.8135 0.0252 -0.5810
vn 0.8342 0.0854 0.5447
vn 0.0342 -0.3336 -0.9421
vn -0.9999 0.0104 0.0084
vn -0.9987 0.0035 0.0507
vn -0.3170 0.0044 0.9484
vn -0.8377 0.0983 -0.5372
vn -0.0590 -0.3270 -0.9432
vn -0.7979 0.0233 0.6024
vn -0.0417 -0.4478 0.8932
vn -0.0055 1.0000 -0.0000
vn -0.0061 1.0000 0.0035
vn 0.9985 0.0202 0.0504
vn 0.9998 0.0065 0.0161
vn 0.9974 0.0266 0.0665
vn 0.0049 0.9978 -0.0665
vn 0.0002 1.0000 -0.0031
vn 0.0047 0.9980 -0.0634
vn -0.0000 -0.0000 1.0000
vn -0.0000 -0.0000 -1.0000
vt 0.000000 0.000000
vt 500.000000 0.000000
vt 0.000000 200.000000
vt 500.000000 200.000000
vt 900.000000 0.000000
vt 900.000000 200.000000
vt 550.000000 0.000000
vt 550.000000 200.000000
vt 280.000000 0.000000
vt 280.000000 200.000000
vt 1450.000000 0.000000
vt 1450.000000 200.000000
vt 600.000000 0.000000
vt 600.000000 200.000000
vt 650.000000 0.000000
vt 650.000000 200.000000
vt 420.000000 0.000000
vt 420.000000 200.000000
vt 150.000000 0.000000
vt 150.000000 200.000000
vt 130.000000 0.000000
vt 130.000000 200.000000
vt 380.000000 0.000000
vt 380.000000 200.000000
vt 480.000000 0.000000
vt 480.000000 200.000000
vt 200.000000 0.000000
vt 200.000000 200.000000
vt 300.000000 0.000000
vt 300.000000 200.000000
vt 180.000000 0.000000
vt 180.000000 200.000000
vt 20.000000 0.000000
vt 20.000000 200.000000
vt 170.000000 0.000000
vt 170.000000 200.000000
vt 460.000000 0.000000
vt 460.000000 200.000000
vt 40.000000 0.000000
vt 40.000000 200.000000
vt 260.000000 0.000000
vt 260.000000 200.000000
vt 70.000000 0.000000
vt 70.000000 200.000000
vt 190.000000 0.000000
vt 190.000000 200.000000
vt 100.000000 0.000000
vt 100.000000 200.000000
vt 680.000000 0.000000
vt 680.000000 200.000000
vt 430.000000 0.000000
vt 430.000000 200.000000
vt 13.333334 200.000000
vt 580.000000 0.000000
vt 580.000000 200.000000
vt 800.000000 0.000000
vt 800.000000 200.000000
vt 1260.000000 0.000000
vt 1260.000000 200.000000
vt 585.000000 0.000000
vt 585.000000 200.000000
vt 65.000000 0.000000
vt 65.000000 200.000000
vt 1205.000000 0.000000
vt 1205.000000 200.000000
vt 1600.000000 0.000000
vt 1600.000000 200.000000
vt 1340.000000 0.000000
vt 1340.000000 200.000000
vt 2700.000000 0.000000
vt 2700.000000 200.000000
vt 1240.000000 0.000000
vt 1240.000000 200.000000
vt 1490.000000 0.000000
vt 1490.000000 200.000000
vt 1100.000000 0.000000
vt 1100.000000 200.000000
vt 238.333344 -455.000000
vt 245.000000 -383.333313
vt 225.000000 750.000000
vt 245.000000 730.000000
vt 725.000000 750.000000
vt 745.000000 730.000000
vt 725.000000 1663.333252
vt 745.000000 1970.000000
vt 725.000000 1950.000000
vt -745.000000 1970.000000
vt -725.000000 1950.000000
vt -725.000000 1656.666626
vt 725.000000 -390.000000
vt 745.000000 -370.000000
vt 725.000000 -676.666626
vt 245.000000 -683.333313
vt 231.666687 -605.000000
vt 238.333344 -1190.000000
vt 745.000000 -1970.000000
vt 725.000000 -1950.000000
vt 245.000000 -1950.000000
vt 231.666687 -1350.000000
vt 225.000000 -1950.000000
vt -595.000000 -1970.000000
vt -575.000000 -1950.000000
vt -575.000000 -1370.000000
vt 75.000000 -1370.000000
vt -95.000000 -1350.000000
vt -575.000000 -1350.000000
vt -575.000000 -663.333374
vt 75.000000 -1350.000000
vt -75.000000 -1350.000000
vt -88.333336 -920.000000
vt -95.000000 -656.666687
vt -81.666664 -770.000000
vt -88.333336 -580.000000
vt -595.000000 730.000000
vt -575.000000 -383.333313
vt -95.000000 -376.666687
vt -75.000000 -430.000000
vt -75.000000 30.000000
vt -95.000000 -430.000000
vt -95.000000 10.000000
vt -245.000000 30.000000
vt -245.000000 10.000000
vt -575.000000 10.000000
vt -575.000000 30.000000
vt -575.000000 336.666656
vt -395.000000 10.000000
vt -395.000000 30.000000
vt -575.000000 730.000000
vt -725.000000 750.000000
vt -745.000000 730.000000
vt -75.000000 750.000000
vt -95.000000 730.000000
vt -75.000000 330.000000
vt -95.000000 350.000000
vt -225.000000 336.666656
vt -225.000000 750.000000
vt -245.000000 -370.000000
vt -231.666656 -455.000000
vt -245.000000 -390.000000
vt -245.000000 730.000000
vt -725.000000 1650.000000
vt -725.000000 1670.000000
vt -175.000000 1663.333252
vt 725.000000 1670.000000
vt 725.000000 1650.000000
vt 125.000000 1656.666626
vt 581.666687 730.000000
vt 75.000000 750.000000
vt 95.000000 730.000000
vt 75.000000 330.000000
vt 95.000000 350.000000
vt 225.000000 343.333313
vt 575.000000 350.000000
vt 575.000000 330.000000
vt 375.000000 336.666656
vt 575.000000 30.000000
vt 575.000000 10.000000
vt 575.000000 -370.000000
vt 395.000000 30.000000
vt 395.000000 10.000000
vt 575.000000 -390.000000
vt 95.000000 -370.000000
vt 95.000000 -390.000000
vt 75.000000 -430.000000
vt 95.000000 -430.000000
vt 75.000000 30.000000
vt 95.000000 10.000000
vt 245.000000 30.000000
vt 245.000000 10.000000
vt 575.000000 -650.000000
vt 595.000000 -1970.000000
vt 575.000000 -670.000000
vt 575.000000 -1350.000000
vt 95.000000 -650.000000
vt 95.000000 -670.000000
vt 81.666664 -580.000000
vt 88.333336 -770.000000
vt 575.000000 -1370.000000
vt 95.000000 -1350.000000
vt -75.000000 -1370.000000
vt 95.000000 -920.000000
vt 75.000000 -920.000000
vt 575.000000 -1950.000000
vt -231.666656 -1950.000000
vt -745.000000 -1970.000000
vt -725.000000 -1950.000000
vt -725.000000 -690.000000
vt -745.000000 -370.000000
vt -725.000000 -670.000000
vt -725.000000 -390.000000
vt -245.000000 -690.000000
vt -245.000000 -670.000000
vt -238.333344 -605.000000
vt -231.666656 -1190.000000
s 1
usemtl 191,191,191
f 109/1/1 108/2/1 113/3/1
f 113/3/1 108/2/1 112/4/1
f 117/1/2 109/5/2 121/3/2
f 121/3/2 109/5/2 113/6/2
f 116/1/3 117/7/4 120/3/5
f 120/3/5 117/7/4 121/8/6
f 123/1/7 116/7/3 121/3/6
f 121/3/6 116/7/3 120/8/5
f 125/1/2 123/9/2 127/3/2
f 127/3/2 123/9/2 121/10/2
f 124/1/8 125/11/8 126/3/8
f 126/3/8 125/11/8 127/12/8
f 122/1/9 124/9/9 118/3/9
f 118/3/9 124/9/9 126/10/9
f 115/1/10 122/13/11 119/3/12
f 119/3/12 122/13/11 118/14/13
f 114/1/14 115/13/10 118/3/13
f 118/3/13 115/13/10 119/14/12
f 106/1/9 114/5/9 110/3/9
f 110/3/9 114/5/9 118/6/9
f 107/1/1 106/15/1 111/3/1
f 111/3/1 106/15/1 110/16/1
f 87/1/9 107/17/9 91/3/9
f 91/3/9 107/17/9 111/18/9
f 86/1/15 87/19/16 90/3/17
f 90/3/17 87/19/16 91/20/18
f 93/1/19 86/21/15 94/3/20
f 94/3/20 86/21/15 90/22/17
f 97/1/2 93/23/2 103/3/2
f 103/3/2 93/23/2 94/24/2
f 96/1/8 97/25/8 102/3/8
f 102/3/8 97/25/8 103/26/8
f 92/1/21 96/23/22 88/3/23
f 88/3/23 96/23/22 102/24/24
f 85/1/25 92/27/26 89/3/27
f 89/3/27 92/27/26 88/28/28
f 84/1/29 85/27/25 88/3/28
f 88/3/28 85/27/25 89/28/27
f 76/1/9 84/29/9 80/3/9
f 80/3/9 84/29/9 88/30/9
f 77/1/1 76/31/1 81/3/1
f 81/3/1 76/31/1 80/32/1
f 69/1/9 77/33/9 73/3/9
f 73/3/9 77/33/9 81/34/9
f 68/1/8 69/31/8 72/3/8
f 72/3/8 69/31/8 73/32/8
f 63/1/9 68/23/9 59/3/9
f 59/3/9 68/23/9 72/24/9
f 64/1/30 63/25/31 60/3/32
f 60/3/32 63/25/31 59/26/33
f 71/1/2 64/23/2 75/3/2
f 75/3/2 64/23/2 60/24/2
f 70/1/8 71/19/8 74/3/8
f 74/3/8 71/19/8 75/20/8
f 78/1/2 70/33/2 82/3/2
f 82/3/2 70/33/2 74/34/2
f 79/1/1 78/35/1 83/3/1
f 83/3/1 78/35/1 82/36/1
f 52/1/9 79/37/9 54/3/9
f 54/3/9 79/37/9 83/38/9
f 51/1/8 52/33/8 53/3/8
f 53/3/8 52/33/8 54/34/8
f 56/1/2 51/39/2 60/3/2
f 60/3/2 51/39/2 53/40/2
f 55/1/34 56/25/35 59/3/33
f 59/3/33 56/25/35 60/26/32
f 43/1/9 55/41/9 41/3/9
f 41/3/9 55/41/9 59/42/9
f 44/1/30 43/25/31 42/3/32
f 42/3/32 43/25/31 41/26/33
f 47/1/36 44/43/37 48/3/38
f 48/3/38 44/43/37 42/44/39
f 31/1/40 47/45/36 32/3/41
f 32/3/41 47/45/36 48/46/38
f 38/1/42 31/47/40 42/3/39
f 42/3/39 31/47/40 32/48/41
f 37/1/34 38/25/35 41/3/33
f 41/3/33 38/25/35 42/26/32
f 16/1/9 37/49/9 21/3/9
f 21/3/9 37/49/9 41/50/9
f 17/1/1 16/25/1 22/3/1
f 22/3/1 16/25/1 21/26/1
f 28/1/43 17/51/44 30/3/45
f 30/3/45 17/51/44 22/52/46
f 29/1/1 28/33/43 30/53/45
f 18/1/9 29/51/47 23/3/48
f 23/3/48 29/51/47 30/52/49
f 19/1/1 18/19/1 24/3/1
f 24/3/1 18/19/1 23/20/1
f 13/1/9 19/33/9 15/3/9
f 15/3/9 19/33/9 24/34/9
f 12/1/8 13/15/8 14/3/8
f 14/3/8 13/15/8 15/16/8
f 5/1/9 12/54/9 8/3/9
f 8/3/9 12/54/9 14/55/9
f 6/1/1 5/56/1 9/3/1
f 9/3/1 5/56/1 8/57/1
f 20/1/50 6/13/51 25/3/52
f 25/3/52 6/13/51 9/14/53
f 6/1/51 20/13/50 10/3/54
f 10/3/54 20/13/50 25/14/52
f 7/1/1 6/25/1 11/3/1
f 11/3/1 6/25/1 10/26/1
f 34/1/2 7/58/2 36/3/2
f 36/3/2 7/58/2 11/59/2
f 33/1/34 34/25/35 35/3/33
f 35/3/33 34/25/35 36/26/32
f 26/1/55 33/2/56 27/3/57
f 27/3/57 33/2/56 35/4/58
f 45/1/59 26/60/55 46/3/60
f 46/3/60 26/60/55 27/61/57
f 39/1/61 45/62/59 35/3/58
f 35/3/58 45/62/59 46/63/60
f 40/1/30 39/25/31 36/3/32
f 36/3/32 39/25/31 35/26/33
f 58/1/2 40/9/2 62/3/2
f 62/3/2 40/9/2 36/10/2
f 57/1/34 58/25/62 61/3/63
f 61/3/63 58/25/62 62/26/64
f 49/1/65 57/62/66 50/3/67
f 50/3/67 57/62/66 61/63/68
f 108/1/69 49/64/65 112/3/70
f 112/3/70 49/64/65 50/65/67
f 66/1/1 65/2/71 67/3/72
f 67/3/72 65/2/71 61/4/73
f 2/1/9 66/66/9 4/3/9
f 4/3/9 66/66/9 67/67/9
f 1/1/8 2/68/8 3/3/8
f 3/3/8 2/68/8 4/69/8
f 96/1/74 1/70/75 101/3/76
f 101/3/76 1/70/75 3/71/2
f 95/1/8 96/19/8 100/3/8
f 100/3/8 96/19/8 101/20/8
f 128/1/2 95/72/2 130/3/2
f 130/3/2 95/72/2 100/73/2
f 129/1/1 128/74/1 131/3/1
f 131/3/1 128/74/1 130/75/1
f 99/1/9 129/72/9 105/3/9
f 105/3/9 129/72/9 131/73/9
f 98/1/8 99/2/8 104/3/8
f 104/3/8 99/2/8 105/4/8
f 65/1/9 98/76/9 61/3/9
f 61/3/9 98/76/9 104/77/9
f 50/78/67 61/79/68 112/80/77
f 112/80/77 61/79/68 104/81/77
f 112/80/77 104/81/77 113/82/77
f 113/82/77 104/81/77 105/83/77
f 113/82/77 105/83/77 121/84/77
f 121/84/77 105/83/77 131/85/77
f 121/84/77 131/85/77 127/86/77
f 127/86/77 131/85/77 130/87/77
f 127/86/77 130/87/77 126/88/77
f 126/88/77 130/87/77 118/89/77
f 61/79/63 62/90/64 67/91/77
f 67/91/77 62/90/64 36/92/77
f 35/93/58 46/94/60 27/95/57
f 67/91/77 36/92/77 4/96/77
f 4/96/77 36/92/77 11/97/77
f 4/96/77 11/97/77 10/98/54
f 10/98/54 25/99/52 9/100/77
f 10/98/54 9/100/77 4/96/77
f 4/96/77 9/100/77 3/101/77
f 3/101/77 9/100/77 8/102/77
f 3/101/77 8/102/77 14/103/77
f 15/104/77 22/105/77 14/103/77
f 14/103/77 22/105/77 21/106/77
f 14/103/77 21/106/77 3/101/77
f 3/101/77 21/106/77 41/107/77
f 24/108/77 23/109/48 15/104/77
f 15/104/77 23/109/48 22/105/77
f 23/109/48 30/110/49 22/105/77
f 42/111/39 32/112/41 48/113/38
f 3/101/77 41/107/77 101/114/77
f 101/114/77 41/107/77 59/115/77
f 60/116/77 54/117/77 83/118/77
f 60/116/77 53/119/77 54/117/77
f 60/116/77 83/118/77 75/120/77
f 75/120/77 83/118/77 82/121/77
f 75/120/77 82/121/77 74/122/77
f 59/115/77 72/123/77 101/114/77
f 101/114/77 72/123/77 80/124/77
f 101/114/77 80/124/77 88/125/77
f 72/123/77 73/126/77 80/124/77
f 80/124/77 73/126/77 81/127/77
f 88/125/77 102/128/77 101/114/77
f 101/114/77 102/128/77 110/129/77
f 101/114/77 110/129/77 100/130/77
f 100/130/77 110/129/77 118/89/77
f 100/130/77 118/89/77 130/87/77
f 110/129/77 102/128/77 111/131/77
f 111/131/77 102/128/77 103/132/77
f 111/131/77 103/132/77 91/133/77
f 91/133/77 103/132/77 94/134/20
f 91/133/77 94/134/20 90/135/17
f 108/136/78 65/137/78 49/138/65
f 49/138/65 65/137/78 57/139/66
f 65/137/78 108/136/78 98/140/78
f 98/140/78 108/136/78 109/129/78
f 98/140/78 109/129/78 99/130/78
f 99/130/78 109/129/78 117/141/78
f 99/130/78 117/141/78 129/87/78
f 129/87/78 117/141/78 123/142/7
f 129/87/78 123/142/7 125/88/78
f 117/141/78 116/143/3 123/142/7
f 125/88/78 124/86/78 129/87/78
f 129/87/78 124/86/78 128/85/78
f 128/85/78 124/86/78 122/144/78
f 128/85/78 122/144/78 114/145/14
f 114/145/14 122/144/78 115/146/10
f 128/85/78 114/145/14 95/83/78
f 95/83/78 114/145/14 106/82/78
f 95/83/78 106/82/78 96/147/78
f 106/82/78 107/148/78 96/147/78
f 96/147/78 107/148/78 97/149/78
f 97/149/78 107/148/78 87/150/78
f 97/149/78 87/150/78 93/151/19
f 93/151/19 87/150/78 86/152/15
f 96/147/22 92/153/21 84/154/29
f 84/154/29 92/153/21 85/155/25
f 84/154/29 76/156/78 96/147/22
f 96/147/22 76/156/78 68/157/78
f 96/147/22 68/157/78 63/158/78
f 76/156/78 77/159/78 68/157/78
f 68/157/78 77/159/78 69/160/78
f 96/147/22 63/158/78 55/161/78
f 55/161/78 63/158/78 64/162/78
f 55/161/78 64/162/78 56/163/78
f 56/163/78 64/162/78 52/164/78
f 56/163/78 52/164/78 51/165/78
f 52/164/78 64/162/78 79/166/78
f 79/166/78 64/162/78 71/167/78
f 79/166/78 71/167/78 78/168/78
f 78/168/78 71/167/78 70/169/78
f 55/161/78 43/170/78 96/147/22
f 96/147/22 43/170/78 1/171/78
f 1/171/78 43/170/78 37/172/78
f 1/171/78 37/172/78 16/173/78
f 43/170/78 44/174/37 37/172/78
f 37/172/78 44/174/37 38/175/42
f 38/175/42 44/174/37 47/176/36
f 38/175/42 47/176/36 31/177/40
f 1/171/78 16/173/78 12/178/78
f 12/178/78 16/173/78 17/179/78
f 12/178/78 17/179/78 13/180/78
f 13/180/78 17/179/78 18/108/78
f 13/180/78 18/108/78 19/109/78
f 28/181/78 29/182/78 17/179/78
f 17/179/78 29/182/78 18/108/78
f 12/178/78 5/183/78 1/171/78
f 1/171/78 5/183/78 6/184/78
f 1/171/78 6/184/78 2/185/78
f 2/185/78 6/184/78 7/186/78
f 7/186/78 34/187/78 2/185/78
f 2/185/78 34/187/78 66/188/78
f 66/188/78 34/187/78 40/189/78
f 66/188/78 40/189/78 58/190/78
f 34/187/78 33/191/56 40/189/78
f 40/189/78 33/191/56 39/192/61
f 39/192/61 33/191/56 45/193/59
f 33/191/56 26/194/55 45/193/59
f 66/188/78 58/190/78 65/137/78
f 65/137/78 58/190/78 57/139/66
